<svg xmlns="http://www.w3.org/2000/svg" width="16" height="16" viewBox="0 0 16 16">
  <g id="vuesax_linear_sms" data-name="vuesax/linear/sms" transform="translate(-556 -250)">
    <g id="sms" transform="translate(556 250)">
      <path id="Vector" d="M10.022,11.384H3.341A3,3,0,0,1,0,8.036V3.348A3,3,0,0,1,3.341,0h6.681a3,3,0,0,1,3.341,3.348V8.036A3,3,0,0,1,10.022,11.384Z" transform="translate(1.319 2.308)" fill="none" stroke="#26292e" stroke-linecap="round" stroke-linejoin="round" stroke-width="1.2"/>
      <path id="Vector-2" data-name="Vector" d="M6.595,0,4.53,1.649a2.088,2.088,0,0,1-2.473,0L0,0" transform="translate(4.703 6.01)" fill="none" stroke="#26292e" stroke-linecap="round" stroke-linejoin="round" stroke-width="1.2"/>
      <path id="Vector-3" data-name="Vector" d="M0,0H16V16H0Z" fill="none" opacity="0"/>
    </g>
  </g>
</svg>
