<svg xmlns="http://www.w3.org/2000/svg" width="9.271" height="9.256" viewBox="0 0 9.271 9.256">
  <g id="Group_12" data-name="Group 12" transform="translate(-891.569 -472.567)" opacity="0.4">
    <path id="Vector" d="M4.769.677.589,4.856a1.455,1.455,0,0,0-.354.7L.011,7.146a.749.749,0,0,0,.9.9L2.5,7.819a1.4,1.4,0,0,0,.7-.354L7.378,3.286a1.612,1.612,0,0,0,0-2.621A1.606,1.606,0,0,0,4.769.677Z" transform="translate(892.171 473.167)" fill="none" stroke="#26292e" stroke-linecap="round" stroke-linejoin="round" stroke-width="1.2"/>
    <path id="Vector-2" data-name="Vector" d="M0,0A3.761,3.761,0,0,0,2.621,2.621" transform="translate(896.338 474.446)" fill="none" stroke="#26292e" stroke-linecap="round" stroke-linejoin="round" stroke-width="1.2"/>
  </g>
</svg>
